<?xml version="1.0" encoding="iso-8859-1"?>
<!-- Generator: Adobe Illustrator 19.0.0, SVG Export Plug-In . SVG Version: 6.00 Build 0)  -->
<svg version="1.1" id="Layer_1" xmlns="http://www.w3.org/2000/svg" xmlns:xlink="http://www.w3.org/1999/xlink" x="0px" y="0px"
	 viewBox="0 0 297.001 297.001" style="enable-background:new 0 0 297.001 297.001;" xml:space="preserve">
<g>
	<g>
		<g>
			<path d="M273.736,0.001H23.264C10.436,0.001,0,10.436,0,23.264v23.789C0,59.88,10.436,70.316,23.264,70.316h250.473
				c12.827,0,23.264-10.435,23.264-23.263V23.264C297,10.436,286.564,0.001,273.736,0.001z"/>
			<path d="M273.736,113.344H23.264C10.436,113.344,0,123.779,0,136.605v23.789c0,12.827,10.436,23.263,23.264,23.263h250.473
				c12.827,0,23.264-10.435,23.264-23.263v-23.789C297,123.779,286.564,113.344,273.736,113.344z"/>
			<path d="M273.736,226.686H23.264C10.436,226.686,0,237.121,0,249.949v23.789C0,286.565,10.436,297,23.264,297h250.473
				C286.564,297,297,286.565,297,273.737v-23.789C297,237.121,286.564,226.686,273.736,226.686z"/>
		</g>
	</g>
</g>
<g>
</g>
<g>
</g>
<g>
</g>
<g>
</g>
<g>
</g>
<g>
</g>
<g>
</g>
<g>
</g>
<g>
</g>
<g>
</g>
<g>
</g>
<g>
</g>
<g>
</g>
<g>
</g>
<g>
</g>
</svg>
